<svg xmlns="http://www.w3.org/2000/svg" viewBox="0 0 200 200" width="200" height="200"><defs><linearGradient id="g2" x1="0%" y1="0%" x2="100%" y2="100%"><stop offset="0%" stop-color="#4285f4"/><stop offset="100%" stop-color="#34a853"/></linearGradient></defs><rect x="10" y="10" width="180" height="180" rx="20" fill="url(#g2)"/><g transform="translate(35,25)"><rect x="0" y="0" width="130" height="150" rx="6" fill="white" opacity="0.9"/><rect x="10" y="0" width="130" height="150" rx="6" fill="white" opacity="0.95"/><rect x="20" y="5" width="130" height="150" rx="6" fill="white"/><polygon points="120,5 120,42 157,42" fill="#e8eaed"/><rect x="45" y="60" width="80" height="6" rx="3" fill="#1a73e8"/><rect x="45" y="75" width="60" height="6" rx="3" fill="#d2d5d9"/><rect x="45" y="90" width="70" height="6" rx="3" fill="#d2d5d9"/><circle cx="55" cy="120" r="12" fill="#1a73e8" opacity="0.1"/><path d="M48 120 L53 125 L62 115" stroke="#1a73e8" stroke-width="2.5" fill="none" stroke-linecap="round" stroke-linejoin="round"/></g><text x="100" y="178" font-family="Arial" font-size="14" font-weight="bold" fill="white" text-anchor="middle" letter-spacing="3">SMARTPDF</text></svg>