<svg xmlns="http://www.w3.org/2000/svg" viewBox="0 0 200 200" width="200" height="200">
  <defs>
    <radialGradient id="g3" cx="50%" cy="50%" r="50%">
      <stop offset="0%" stop-color="#fce8e6"/>
      <stop offset="100%" stop-color="#ea4335"/>
    </radialGradient>
  </defs>
  <circle cx="100" cy="100" r="92" fill="url(#g3)"/>
  <g transform="translate(22,18)">
    <path d="M78 0 C60 0 45 10 38 25 C20 28 8 42 8 60 C8 78 20 92 38 96 L38 145 L55 145 L55 120 C60 122 65 123 70 123 L70 145 L88 145 L88 110 L78 105 L78 85 L98 85 L98 68 L108 68 L108 0 Z" fill="white" opacity="0.95"/>
    <path d="M70 12 C58 12 48 20 44 30 C32 32 22 42 22 55 C22 68 32 78 44 80 L44 120 L55 120 L55 100 C58 102 62 103 65 103 L65 120 L78 120 L78 95 L70 90 L70 75 L88 75 L88 60 L95 60 L95 16 Z" fill="#fce8e6"/>
    <text x="60" y="58" font-family="Arial" font-size="28" font-weight="bold" fill="#ea4335" text-anchor="middle">PDF</text>
    <circle cx="82" cy="88" r="3" fill="#34a853"/>
    <path d="M80 88 L84 92 L89 85" stroke="#34a853" stroke-width="1.5" fill="none" stroke-linecap="round"/>
  </g>
  <text x="100" y="178" font-family="Arial" font-size="12" font-weight="bold" fill="white" text-anchor="middle" letter-spacing="3">SMARTPDF</text>
</svg>